<svg width="20" height="21" viewBox="0 0 20 21" fill="none" xmlns="http://www.w3.org/2000/svg">
<path fill-rule="evenodd" clip-rule="evenodd" d="M6.00002 16.7666C4.89602 16.7666 4.01002 17.6616 4.01002 18.7666C4.01002 19.8706 4.89602 20.7666 6.00002 20.7666C7.10502 20.7666 8.00002 19.8706 8.00002 18.7666C8.00002 17.6616 7.10502 16.7666 6.00002 16.7666ZM16 16.7666C14.896 16.7666 14.01 17.6616 14.01 18.7666C14.01 19.8706 14.896 20.7666 16 20.7666C17.105 20.7666 18 19.8706 18 18.7666C18 17.6616 17.105 16.7666 16 16.7666ZM2.00002 0.766602H-0.000976562V2.7656H2.00002L5.59802 10.3536L4.24502 12.8046C4.08902 13.0916 4.00002 13.4196 4.00002 13.7666C4.00002 14.8706 4.89602 15.7666 6.00002 15.7666H18V13.7666H6.42302C6.28502 13.7666 6.17402 13.6556 6.17402 13.5166L6.20402 13.3956L7.10202 11.7666H14.551C15.303 11.7666 15.959 11.3516 16.301 10.7376L19.875 4.2486C19.955 4.1066 20.001 3.9416 20.001 3.7666C20.001 3.2136 19.553 2.7656 19 2.7656H4.21302L3.80702 1.9116C3.48802 1.2346 2.79802 0.766602 2.00002 0.766602Z" fill="#6FB285"/>
</svg>
